# xmcd
#
# Track frame offsets:
#	150
#	12860
#	30697
#	43997
#	56527
#	72635
#	83432
#	96935
#	114765
#	136672
#	154775
#	178162
#
# Disc length: 2599 seconds
#
# Revision: 1
# Processed by: cddbd v1.5PL3 Copyright (c) Steve Scherf et al.
# Submitted via: audiograbber 1.82.02
#
DISCID=960a250c
DTITLE=Various Artist - Cash on Delivery
DYEAR=1992
DGENRE=country
TTITLE0=Laurie Lewis - Train of Love
TTITLE1=The DiMaggio Brothers - Hey Porter
TTITLE2=The Schankman Twins - Home of the Blues
TTITLE3=Brantley Kearns - Big River
TTITLE4=Phil Lee - I Got Stripes
TTITLE5=Cod Express - Tennessee Flat Top Box
TTITLE6=Faye Pierce - 40 Shades of Green
TTITLE7=ADZ - Jackson
TTITLE8=Wayne Kramer - One Piece at a Time
TTITLE9=Lone Prarie - Don't Take Your Guns to Town
TTITLE10=Russell Means and Simon Stokes - Ballad of Ira Hayes
TTITLE11=Col Jim Silvers - You're the Nearest Thing to Heaven
EXTD=
EXTT0=
EXTT1=
EXTT2=
EXTT3=
EXTT4=
EXTT5=
EXTT6=
EXTT7=
EXTT8=
EXTT9=
EXTT10=
EXTT11=
PLAYORDER=
